<?xml version="1.0" encoding="UTF-8" standalone="no"?>
<!-- Created with Inkscape (http://www.inkscape.org/) -->

<svg
   xmlns:dc="http://purl.org/dc/elements/1.1/"
   xmlns:cc="http://creativecommons.org/ns#"
   xmlns:rdf="http://www.w3.org/1999/02/22-rdf-syntax-ns#"
   xmlns:svg="http://www.w3.org/2000/svg"
   xmlns="http://www.w3.org/2000/svg"
   xmlns:sodipodi="http://sodipodi.sourceforge.net/DTD/sodipodi-0.dtd"
   xmlns:inkscape="http://www.inkscape.org/namespaces/inkscape"
   id="svg2"
   version="1.1"
   inkscape:version="0.48.1 r9760"
   width="80"
   height="80"
   xml:space="preserve"
   sodipodi:docname="batch7.ai"><metadata
     id="metadata8"><rdf:RDF><cc:Work
         rdf:about=""><dc:format>image/svg+xml</dc:format><dc:type
           rdf:resource="http://purl.org/dc/dcmitype/StillImage" /><dc:title></dc:title></cc:Work></rdf:RDF></metadata><defs
     id="defs6"><clipPath
       clipPathUnits="userSpaceOnUse"
       id="clipPath16"><path
         d="M 0,64 64,64 64,0 0,0 0,64 z"
         id="path18" /></clipPath><clipPath
       clipPathUnits="userSpaceOnUse"
       id="clipPath36"><path
         d="M 9.95801,16 293,16 l 0,-282 -283.04199,0 0,282 z"
         id="path38" /></clipPath><clipPath
       clipPathUnits="userSpaceOnUse"
       id="clipPath40"><path
         d="m 9.95801,16 283.37299,0 0,-282 -283.37299,0 0,282 z"
         id="path42" /></clipPath><clipPath
       clipPathUnits="userSpaceOnUse"
       id="clipPath44"><path
         d="m 0,-272 304,0 0,50 -304,0 0,-50 z"
         id="path46" /></clipPath><linearGradient
       x1="0"
       y1="0"
       x2="1"
       y2="0"
       gradientUnits="userSpaceOnUse"
       gradientTransform="matrix(0,-50,-50,0,151.99951,-222)"
       spreadMethod="pad"
       id="linearGradient48"><stop
         style="stop-opacity:1;stop-color:#666666"
         offset="0"
         id="stop50" /><stop
         style="stop-opacity:1;stop-color:#000000"
         offset="0.300003"
         id="stop52" /><stop
         style="stop-opacity:1;stop-color:#000000"
         offset="1"
         id="stop54" /></linearGradient><clipPath
       clipPathUnits="userSpaceOnUse"
       id="clipPath56"><path
         d="m 0,-192 304,0 0,50 -304,0 0,-50 z"
         id="path58" /></clipPath><linearGradient
       x1="0"
       y1="0"
       x2="1"
       y2="0"
       gradientUnits="userSpaceOnUse"
       gradientTransform="matrix(0,-50,-50,0,151.99951,-142)"
       spreadMethod="pad"
       id="linearGradient60"><stop
         style="stop-opacity:1;stop-color:#666666"
         offset="0"
         id="stop62" /><stop
         style="stop-opacity:1;stop-color:#000000"
         offset="0.300003"
         id="stop64" /><stop
         style="stop-opacity:1;stop-color:#000000"
         offset="1"
         id="stop66" /></linearGradient><clipPath
       clipPathUnits="userSpaceOnUse"
       id="clipPath68"><path
         d="m 0,-112 304,0 0,50 -304,0 0,-50 z"
         id="path70" /></clipPath><linearGradient
       x1="0"
       y1="0"
       x2="1"
       y2="0"
       gradientUnits="userSpaceOnUse"
       gradientTransform="matrix(0,-50.000488,-50.000488,0,151.99951,-62)"
       spreadMethod="pad"
       id="linearGradient72"><stop
         style="stop-opacity:1;stop-color:#666666"
         offset="0"
         id="stop74" /><stop
         style="stop-opacity:1;stop-color:#000000"
         offset="0.300003"
         id="stop76" /><stop
         style="stop-opacity:1;stop-color:#000000"
         offset="1"
         id="stop78" /></linearGradient><clipPath
       clipPathUnits="userSpaceOnUse"
       id="clipPath80"><path
         d="m 0,-32 304,0 0,50 -304,0 0,-50 z"
         id="path82" /></clipPath><linearGradient
       x1="0"
       y1="0"
       x2="1"
       y2="0"
       gradientUnits="userSpaceOnUse"
       gradientTransform="matrix(0,-50,-50,0,151.99951,18)"
       spreadMethod="pad"
       id="linearGradient84"><stop
         style="stop-opacity:1;stop-color:#666666"
         offset="0"
         id="stop86" /><stop
         style="stop-opacity:1;stop-color:#000000"
         offset="0.300003"
         id="stop88" /><stop
         style="stop-opacity:1;stop-color:#000000"
         offset="1"
         id="stop90" /></linearGradient><mask
       maskUnits="userSpaceOnUse"
       x="0"
       y="0"
       width="1"
       height="1"
       id="mask92"><g
         id="g94"><g
           clip-path="url(#clipPath36)"
           opacity="0.600006"
           id="g96"><path
             d="m 9.958,16 283.373,0 0,-282 -283.373,0 0,282 z"
             style="fill:#000000;fill-opacity:1;fill-rule:nonzero;stroke:none"
             id="path98" /><g
             id="g100"><g
               id="g102" /><g
               id="g104"><g
                 clip-path="url(#clipPath40)"
                 id="g106"><g
                   id="g108"><g
                     clip-path="url(#clipPath44)"
                     id="g110"><g
                       id="g112"><g
                         id="g114"><path
                           d="m 0,-272 304,0 0,50 -304,0 0,-50 z"
                           style="fill:url(#linearGradient48);stroke:none"
                           id="path116" /></g></g></g></g><path
                   d="m 0,-272 304,0 0,50 -304,0 0,-50 z"
                   style="fill:none;stroke:#ffffff;stroke-opacity:1;stroke-width:2;stroke-linecap:butt;stroke-linejoin:miter;stroke-miterlimit:4;stroke-dasharray:none"
                   id="path118" /><g
                   id="g120"><g
                     clip-path="url(#clipPath56)"
                     id="g122"><g
                       id="g124"><g
                         id="g126"><path
                           d="m 0,-192 304,0 0,50 -304,0 0,-50 z"
                           style="fill:url(#linearGradient60);stroke:none"
                           id="path128" /></g></g></g></g><path
                   d="m 0,-192 304,0 0,50 -304,0 0,-50 z"
                   style="fill:none;stroke:#ffffff;stroke-opacity:1;stroke-width:2;stroke-linecap:butt;stroke-linejoin:miter;stroke-miterlimit:4;stroke-dasharray:none"
                   id="path130" /><g
                   id="g132"><g
                     clip-path="url(#clipPath68)"
                     id="g134"><g
                       id="g136"><g
                         id="g138"><path
                           d="m 0,-112 304,0 0,50 -304,0 0,-50 z"
                           style="fill:url(#linearGradient72);stroke:none"
                           id="path140" /></g></g></g></g><path
                   d="m 0,-112 304,0 0,50 -304,0 0,-50 z"
                   style="fill:none;stroke:#ffffff;stroke-opacity:1;stroke-width:2;stroke-linecap:butt;stroke-linejoin:miter;stroke-miterlimit:4;stroke-dasharray:none"
                   id="path142" /><g
                   id="g144"><g
                     clip-path="url(#clipPath80)"
                     id="g146"><g
                       id="g148"><g
                         id="g150"><path
                           d="m 0,-32 304,0 0,50 -304,0 0,-50 z"
                           style="fill:url(#linearGradient84);stroke:none"
                           id="path152" /></g></g></g></g><path
                   d="m 0,-32 304,0 0,50 -304,0 0,-50 z"
                   style="fill:none;stroke:#ffffff;stroke-opacity:1;stroke-width:2;stroke-linecap:butt;stroke-linejoin:miter;stroke-miterlimit:4;stroke-dasharray:none"
                   id="path154" /></g></g></g></g></g></mask><clipPath
       clipPathUnits="userSpaceOnUse"
       id="clipPath160"><path
         d="M 9.95801,16 293,16 l 0,-282 -283.04199,0 0,282 z"
         id="path162" /></clipPath></defs><sodipodi:namedview
     pagecolor="#ffffff"
     bordercolor="#666666"
     borderopacity="1"
     objecttolerance="10"
     gridtolerance="10"
     guidetolerance="10"
     inkscape:pageopacity="0"
     inkscape:pageshadow="2"
     inkscape:window-width="1920"
     inkscape:window-height="1027"
     id="namedview4"
     showgrid="false"
     inkscape:zoom="4"
     inkscape:cx="40"
     inkscape:cy="40"
     inkscape:window-x="1680"
     inkscape:window-y="24"
     inkscape:window-maximized="1"
     inkscape:current-layer="g10" /><g
     id="g10"
     inkscape:groupmode="layer"
     inkscape:label="batch7"
     transform="matrix(1.25,0,0,-1.25,0,80)"><g
       id="g12"><g
         id="g14"
         clip-path="url(#clipPath16)"><g
           id="g20"
           transform="translate(21.0127,20.9727)"><path
             d="m 0,0 c -0.262,0.341 -0.613,0.75 -1.063,1.2 l -2.828,2.828 c -0.45,0.45 -0.859,0.801 -1.2,1.063 -0.291,-0.67 -0.651,-1.583 -1.012,-2.665 l -1.714,-5.139 c -10e-4,-0.006 -0.003,-0.013 -0.006,-0.019 0.007,0.003 0.013,0.004 0.02,0.006 l 5.138,1.713 C -1.583,-0.651 -0.669,-0.292 0,0"
             style="fill:#000000;fill-opacity:1;fill-rule:nonzero;stroke:none"
             id="path22" /></g><g
           id="g24"
           transform="translate(46.8066,57.5278)"><path
             d="M 0,0 -1.415,-1.414 -3.542,-3.542 -1.415,-5.67 0,-7.085 2.128,-9.213 4.256,-7.085 5.67,-5.67 c 0.784,0.783 0.784,2.058 0,2.841 L 2.842,0 C 2.058,0.784 0.784,0.784 0,0"
             style="fill:#000000;fill-opacity:1;fill-rule:nonzero;stroke:none"
             id="path26" /></g><g
           id="g28"
           transform="translate(45.3989,49.0356)"><path
             d="m 0,0 -1.414,1.414 c -0.791,0.791 -1.547,1.548 -2.128,2.128 l -21.92,-21.92 -2.929,-2.928 c 0.481,-0.358 1.001,-0.802 1.521,-1.321 l 2.828,-2.829 c 0.52,-0.52 0.964,-1.04 1.322,-1.521 l 2.928,2.929 21.92,21.92 C 1.548,-1.547 0.791,-0.791 0,0"
             style="fill:#000000;fill-opacity:1;fill-rule:nonzero;stroke:none"
             id="path30" /></g><g
           id="g32"><g
             id="g34" /><g
             id="g156"
             mask="url(#mask92)"><g
               id="g158" /><g
               id="g164"><g
                 clip-path="url(#clipPath160)"
                 opacity="0.600006"
                 id="g166"><g
                   transform="translate(20.9805,13.1431)"
                   id="g168"><path
                     d="m 0,0 c -0.262,-0.341 -0.613,-0.75 -1.063,-1.2 l -2.828,-2.828 c -0.45,-0.45 -0.859,-0.801 -1.2,-1.063 -0.291,0.67 -0.651,1.583 -1.012,2.665 L -7.817,2.713 C -7.818,2.719 -7.82,2.726 -7.823,2.732 -7.816,2.729 -7.81,2.728 -7.803,2.726 L -2.665,1.013 C -1.583,0.651 -0.669,0.292 0,0"
                     style="fill:#000000;fill-opacity:1;fill-rule:nonzero;stroke:none"
                     id="path170" /></g><g
                   transform="translate(45.3667,-14.9199)"
                   id="g172"><path
                     d="m 0,0 -1.414,-1.414 c -0.791,-0.791 -1.547,-1.548 -2.128,-2.128 l -21.92,21.92 -2.929,2.928 c 0.481,0.358 1.001,0.802 1.521,1.321 l 2.828,2.829 c 0.52,0.52 0.964,1.04 1.322,1.521 l 2.928,-2.929 21.92,-21.92 C 1.548,1.547 0.791,0.791 0,0"
                     style="fill:#000000;fill-opacity:1;fill-rule:nonzero;stroke:none"
                     id="path174" /></g></g></g></g></g></g></g></g></svg>